<svg fill="#000000" xmlns="http://www.w3.org/2000/svg" viewBox="62 201 1805 1584" fill-rule="evenodd">
<g transform="translate(0.000000,1900.000000) scale(0.100000,-0.100000)"
stroke="none">
<path d="M12410 16794 c-241 -43 -485 -194 -765 -470 -348 -344 -754 -856
-1363 -1717 -176 -248 -343 -491 -418 -604 -64 -97 -31 -91 -317 -63 -756 73
-1068 76 -1457 14 -169 -27 -246 -44 -330 -75 -221 -81 -360 -183 -434 -319
l-26 -47 48 -37 c135 -106 365 -341 527 -539 87 -108 247 -327 267 -367 6 -14
22 -38 34 -55 82 -115 293 -543 343 -697 7 -21 16 -38 20 -38 4 0 25 23 46 52
131 172 443 498 635 663 103 88 163 137 235 191 44 33 109 82 144 109 l63 48
144 -58 c80 -32 147 -62 150 -67 3 -4 12 -8 20 -8 8 0 33 -8 57 -19 62 -28
134 -54 302 -111 83 -28 175 -59 205 -70 50 -17 510 -136 675 -174 187 -43
683 -118 975 -147 198 -20 280 -23 680 -23 481 0 564 4 1040 55 157 16 337 33
401 36 114 6 117 5 230 -32 63 -21 134 -45 159 -55 371 -147 378 -150 615
-266 157 -77 244 -124 370 -201 11 -7 27 -15 35 -19 63 -31 399 -258 458 -310
143 -125 489 -731 638 -1118 20 -50 51 -129 69 -176 176 -452 293 -1010 349
-1670 14 -160 17 -554 7 -735 -13 -227 -44 -516 -66 -620 -8 -38 -29 -142 -46
-230 -57 -290 -70 -344 -153 -611 -70 -227 -93 -293 -151 -429 -26 -60 -54
-128 -63 -150 -44 -111 -211 -429 -311 -593 -62 -103 -221 -336 -304 -447
-273 -363 -624 -715 -957 -961 -256 -189 -393 -279 -590 -386 -150 -82 -431
-218 -510 -248 -47 -18 -98 -38 -115 -45 -118 -51 -445 -154 -615 -194 -407
-95 -875 -136 -1297 -112 -181 10 -501 45 -638 70 -98 17 -290 62 -307 71 -10
6 -26 10 -35 10 -30 0 -504 152 -528 170 -5 4 -39 17 -75 30 -90 33 -187 77
-380 175 -213 107 -222 112 -229 122 -3 4 -31 21 -61 37 -63 34 -268 168 -353
232 -31 24 -59 44 -62 44 -3 0 -13 6 -22 14 -10 8 -74 59 -143 114 -175 139
-212 173 -411 371 -197 197 -378 408 -496 580 -18 25 -36 51 -40 56 -25 31
-110 157 -184 275 -128 202 -217 364 -310 565 -93 201 -107 234 -143 335 -21
58 -49 132 -61 165 -46 121 -157 522 -194 700 -12 55 -32 167 -45 248 -14 82
-27 151 -30 154 -6 6 -3 9 -155 -106 -80 -60 -111 -90 -111 -105 0 -54 118
-576 166 -736 39 -129 169 -497 199 -565 15 -33 36 -80 47 -105 11 -25 29 -65
40 -90 98 -218 296 -574 414 -745 88 -128 240 -342 256 -360 10 -11 43 -51 73
-90 31 -38 64 -79 72 -90 94 -117 500 -527 569 -575 11 -8 43 -34 70 -57 56
-48 171 -140 205 -165 13 -9 61 -43 106 -77 45 -33 100 -71 123 -86 24 -15 38
-30 34 -37 -4 -6 -3 -8 4 -4 10 6 116 -50 157 -84 26 -22 144 -90 155 -90 5 0
10 -3 12 -7 3 -9 24 -20 248 -134 85 -44 172 -85 193 -91 20 -6 37 -15 37 -20
0 -4 6 -8 14 -8 7 0 47 -15 87 -33 41 -19 103 -44 139 -56 36 -12 74 -26 85
-31 49 -23 303 -102 435 -135 80 -20 168 -42 195 -50 179 -50 521 -95 870
-116 369 -21 857 12 1200 82 357 74 778 208 1060 339 425 197 537 262 959 551
65 45 289 219 306 238 3 4 57 52 120 108 286 253 574 580 820 929 143 203 292
456 415 704 80 161 87 178 185 420 34 85 68 169 75 185 49 116 181 598 228
835 21 105 34 184 56 340 55 387 56 390 56 890 0 485 -2 524 -46 860 -47 364
-108 683 -164 860 -5 15 7 18 97 23 193 12 379 57 510 123 175 87 347 220 428
329 110 149 157 331 130 511 -12 81 -35 175 -51 206 -5 10 -9 23 -9 30 -1 7
-9 31 -20 53 -11 22 -19 43 -20 47 -1 30 -199 329 -267 404 -15 17 -55 62 -88
100 -137 158 -347 335 -575 487 -58 38 -124 83 -148 99 -47 33 -434 228 -452
228 -6 0 -28 9 -48 19 -20 11 -59 30 -87 42 -27 12 -77 34 -110 49 -33 15 -72
32 -86 38 -22 9 -26 16 -27 63 -1 30 -4 77 -7 104 -3 28 -10 140 -15 250 -36
720 -69 1103 -150 1760 -25 203 -53 336 -97 464 -30 89 -117 277 -158 341 -16
25 -28 50 -28 57 0 6 -4 11 -8 10 -4 -1 -29 28 -57 64 -91 120 -255 250 -395
313 -240 109 -409 122 -777 57 -30 -5 -154 -35 -275 -67 -211 -55 -225 -57
-350 -58 -110 -1 -135 2 -165 18 -57 31 -177 145 -377 358 -183 195 -335 338
-438 410 -125 87 -279 156 -407 183 -86 18 -285 18 -388 -1z m317 -434 c81
-28 97 -37 186 -99 74 -52 97 -72 58 -52 -58 32 -178 61 -248 61 -104 0 -173
-24 -337 -119 -98 -56 -311 -250 -505 -457 -175 -189 -382 -397 -461 -465 -69
-60 -218 -175 -248 -193 -39 -23 264 417 437 634 336 424 588 633 841 700 89
24 187 20 277 -10z m-1033 -1891 c374 -28 838 -101 1358 -213 212 -46 913
-242 1003 -281 17 -7 41 -16 55 -20 14 -3 34 -10 45 -15 11 -4 61 -22 110 -40
101 -36 352 -138 433 -176 29 -13 55 -24 58 -24 10 0 345 -167 459 -230 66
-36 137 -74 158 -85 21 -11 47 -28 57 -37 11 -10 22 -18 26 -18 4 0 22 -11 40
-25 18 -14 36 -25 39 -25 19 0 344 -237 435 -317 107 -94 240 -240 240 -264 0
-5 -38 21 -85 56 -47 36 -88 65 -92 65 -4 0 -16 8 -27 19 -22 20 -255 175
-341 228 -92 56 -365 197 -470 243 -27 12 -68 30 -90 40 -80 35 -182 69 -248
85 -81 18 -77 18 -77 6 0 -6 48 -36 108 -67 183 -97 528 -305 552 -333 5 -6
33 -27 178 -133 31 -24 82 -64 112 -89 30 -25 66 -55 79 -65 146 -115 313
-279 221 -217 -84 57 -251 163 -256 163 -3 0 -24 13 -47 29 -78 53 -471 259
-647 339 -82 37 -298 121 -415 162 -49 17 -99 35 -110 40 -18 9 -114 39 -355
112 -52 15 -111 27 -130 25 -35 -3 -34 -3 35 -36 39 -19 124 -55 190 -82 66
-26 163 -67 215 -92 52 -24 136 -63 185 -86 50 -23 99 -47 110 -53 27 -15 183
-98 220 -116 17 -9 48 -27 70 -42 22 -14 78 -48 125 -75 93 -53 312 -196 307
-202 -2 -1 -57 18 -123 43 -788 302 -1258 462 -1799 614 -357 100 -521 143
-680 180 -99 22 -198 45 -220 50 -100 24 -368 80 -445 94 -47 8 -170 30 -275
50 -561 103 -1240 189 -1747 222 -54 3 -98 10 -98 16 0 14 93 146 132 188 29
31 42 37 108 48 217 35 350 53 485 68 82 9 161 21 175 26 24 10 23 11 -23 23
-132 35 -385 43 -569 17 -32 -4 -58 -6 -58 -4 0 2 12 21 28 43 24 35 38 43
122 70 138 45 316 78 540 102 81 9 484 6 614 -4z m-2802 -784 c299 -10 632
-34 1368 -100 596 -53 759 -70 1225 -129 l180 -22 -147 -8 c-156 -9 -1641 0
-1742 10 -45 5 -57 3 -54 -7 11 -32 440 -265 663 -359 55 -23 116 -50 135 -60
19 -10 73 -35 120 -55 47 -20 114 -49 150 -65 105 -46 436 -170 454 -170 3 0
25 -9 49 -19 23 -11 83 -31 132 -45 50 -15 113 -33 140 -42 28 -8 84 -24 125
-34 l75 -19 -60 5 c-242 22 -605 94 -850 169 -60 18 -144 43 -185 55 -96 28
-160 49 -182 61 -10 5 -28 9 -41 9 -13 0 -27 4 -33 8 -5 5 -31 17 -59 27 -69
24 -293 113 -330 130 -16 7 -84 37 -150 65 -152 66 -529 251 -533 262 -2 4 -7
8 -12 8 -4 0 -72 31 -151 69 -218 104 -313 143 -569 231 -36 12 -68 25 -72 29
-8 7 58 6 354 -4z"/>
<path d="M4140 14240 c-326 -36 -590 -97 -869 -200 -75 -28 -89 -33 -206 -86
-357 -160 -686 -371 -960 -618 -49 -44 -103 -92 -118 -106 -55 -48 -266 -280
-344 -377 -75 -94 -186 -244 -228 -308 -31 -49 -195 -338 -195 -345 0 -3 -24
-54 -54 -113 -30 -60 -71 -152 -92 -205 -20 -53 -43 -110 -50 -127 -32 -75
-70 -209 -109 -385 -103 -463 -110 -524 -109 -945 0 -248 4 -349 18 -450 28
-208 76 -431 150 -700 38 -138 193 -502 289 -677 125 -228 296 -479 463 -678
76 -90 361 -380 414 -421 17 -13 46 -36 63 -51 18 -14 66 -54 107 -88 41 -34
85 -70 96 -81 12 -10 25 -19 29 -19 5 0 26 -15 49 -33 61 -49 239 -166 284
-187 13 -5 56 -30 96 -54 61 -37 180 -97 271 -136 11 -5 46 -20 78 -34 32 -14
60 -26 63 -26 3 0 20 -6 37 -14 55 -25 193 -75 233 -85 22 -6 71 -20 109 -31
211 -64 475 -113 683 -127 74 -5 83 -8 87 -27 13 -59 35 -229 35 -265 0 -23
-15 -80 -34 -129 -18 -48 -37 -114 -40 -147 -10 -86 -13 -93 -49 -101 -33 -7
-59 -17 -167 -67 -36 -16 -81 -36 -100 -44 -61 -26 -193 -119 -257 -182 -128
-125 -230 -300 -274 -469 -27 -107 -27 -261 1 -376 32 -129 103 -260 203 -370
15 -17 27 -36 27 -42 0 -6 -15 -44 -34 -85 -54 -118 -69 -188 -70 -329 0 -99
5 -144 23 -215 25 -97 93 -243 143 -309 45 -59 147 -154 214 -199 l41 -28 -5
-103 c-10 -228 58 -408 217 -566 146 -145 343 -245 551 -280 88 -15 247 -18
342 -7 65 7 68 7 73 -15 81 -366 96 -421 139 -510 92 -192 222 -290 442 -334
77 -15 98 -16 177 -5 168 24 301 84 397 180 107 107 149 190 177 346 20 120
14 193 -41 469 -25 125 -46 229 -46 231 0 2 17 -1 38 -6 60 -15 241 -11 307 6
138 35 304 139 423 264 63 66 162 200 162 219 0 6 4 12 9 14 9 3 74 135 114
235 30 74 73 240 87 338 13 92 13 338 0 445 -10 78 -39 206 -59 255 -27 67
-98 208 -115 229 -12 14 -33 40 -48 60 -53 68 -211 171 -288 189 -23 6 -27 15
-43 104 -11 54 -28 130 -39 168 -11 39 -26 93 -34 121 -33 119 -122 323 -176
403 -155 228 -387 397 -634 462 -120 32 -342 32 -446 2 l-68 -20 -20 67 c-11
37 -20 70 -20 73 0 15 -63 97 -110 142 -62 60 -74 82 -94 166 -17 75 -17 75
74 85 69 7 325 69 425 103 33 11 66 21 73 21 8 0 28 6 45 14 18 8 46 19 62 24
208 71 553 246 770 390 223 149 362 260 529 422 192 187 411 446 528 625 148
228 285 480 348 642 17 43 35 87 40 98 41 86 138 408 181 605 96 430 111 926
43 1385 -30 203 -139 646 -185 750 -4 11 -20 52 -34 90 -14 39 -30 79 -35 90
-5 11 -19 45 -31 75 -29 77 -157 335 -196 397 -18 29 -33 55 -33 58 0 8 -178
274 -221 330 -16 22 -40 53 -52 69 -12 16 -27 34 -32 40 -9 10 -43 52 -110
136 -33 42 -285 290 -370 366 -86 75 -307 247 -357 277 -17 10 -37 24 -45 32
-8 8 -18 15 -23 15 -4 0 -36 21 -70 46 -73 53 -267 158 -435 233 -38 18 -79
36 -90 41 -203 92 -591 206 -850 250 -259 43 -380 52 -745 55 -293 3 -384 0
-520 -15z m655 -213 c11 -3 56 -8 100 -12 226 -20 678 -130 860 -210 17 -7 75
-32 130 -55 613 -259 1190 -738 1562 -1295 73 -109 133 -204 133 -209 0 -3 19
-37 43 -78 24 -40 49 -89 57 -108 8 -19 17 -37 20 -40 9 -7 80 -158 120 -255
18 -44 39 -95 47 -113 48 -110 116 -337 153 -507 12 -55 25 -118 31 -140 76
-330 86 -869 23 -1240 -52 -303 -137 -592 -249 -850 -64 -146 -219 -447 -247
-480 -5 -5 -28 -39 -52 -75 -120 -184 -160 -237 -307 -405 -267 -305 -623
-594 -929 -755 -52 -27 -115 -60 -140 -73 -200 -106 -544 -231 -760 -277 -382
-82 -682 -105 -1006 -80 -195 15 -342 40 -664 110 -39 8 -230 71 -270 88 -14
6 -56 23 -95 37 -38 15 -88 35 -110 45 -22 9 -50 21 -62 24 -13 4 -23 12 -23
17 0 5 -10 9 -22 9 -13 0 -34 9 -48 20 -14 11 -29 20 -34 20 -36 1 -388 220
-538 335 -240 184 -501 434 -648 620 -25 32 -57 71 -71 89 -177 214 -423 644
-521 910 -47 127 -118 349 -118 368 0 9 -4 19 -9 22 -5 3 -11 20 -14 38 -2 18
-16 86 -31 150 -29 132 -58 329 -77 522 -30 318 23 836 122 1196 26 93 129
401 139 415 4 6 11 21 15 35 18 59 111 247 189 384 31 54 56 100 56 103 0 9
132 206 191 283 178 235 445 511 649 671 383 300 793 509 1223 623 280 74 383
92 742 130 46 5 410 -1 440 -7z m2562 -1039 c64 -61 217 -235 274 -311 21 -29
43 -58 49 -65 6 -7 55 -79 109 -160 130 -195 187 -298 288 -522 49 -107 51
-97 -24 -119 -37 -11 -68 -19 -69 -18 -1 1 -38 76 -83 167 -107 218 -197 379
-321 569 -28 43 -126 171 -162 213 -13 14 -30 35 -38 45 -115 138 -174 203
-183 203 -7 0 1 12 16 25 45 40 79 33 144 -27z m-2557 -6655 c6 -21 13 -72 16
-113 5 -64 3 -87 -20 -155 -48 -146 -45 -202 34 -605 4 -25 6 -47 4 -49 -2 -2
-21 1 -43 7 -21 7 -52 12 -70 12 -17 0 -31 2 -31 5 0 3 -16 94 -35 202 -45
251 -45 304 -2 420 29 81 32 97 31 201 l-1 112 53 0 c53 0 53 0 64 -37z m1286
-504 c69 -12 184 -50 184 -61 0 -5 8 -8 18 -8 50 0 253 -171 319 -270 91 -136
169 -333 217 -545 67 -300 75 -650 20 -969 -17 -102 -12 -116 35 -96 121 50
234 310 247 568 5 101 9 103 72 34 117 -127 165 -241 191 -452 34 -266 -29
-621 -145 -818 -108 -186 -213 -299 -322 -349 -41 -19 -95 -41 -121 -49 -46
-14 -181 -20 -181 -8 0 4 29 38 65 76 91 96 149 188 186 293 26 76 32 109 36
215 7 171 -17 257 -65 231 -12 -6 -22 -18 -22 -25 0 -17 -100 -268 -133 -333
-35 -68 -126 -209 -165 -253 -82 -94 -91 -103 -96 -89 -11 33 -28 104 -46 201
-10 56 -42 202 -70 323 -27 121 -50 230 -50 243 0 22 1 22 31 6 23 -12 51 -15
103 -12 59 3 79 8 116 34 33 22 45 36 45 54 0 22 -7 27 -69 42 -72 18 -142 51
-212 99 -46 31 -144 148 -149 177 -2 15 27 67 45 82 15 12 100 191 123 260 14
41 35 122 47 180 12 58 37 141 55 185 46 112 58 159 59 245 1 78 -20 136 -47
128 -7 -3 -24 -40 -39 -84 -15 -43 -30 -78 -34 -77 -4 1 -18 30 -30 65 -29 86
-48 119 -92 166 -53 57 -75 66 -103 44 -21 -18 -22 -21 -10 -98 22 -144 25
-397 7 -503 -29 -167 -80 -292 -161 -396 -172 -223 -405 -279 -567 -136 -44
39 -96 143 -109 219 -34 212 41 846 123 1032 12 29 21 51 42 102 8 20 32 61
55 91 129 176 380 275 597 236z m-1672 -231 c20 -92 26 -134 26 -168 0 -32 -4
-40 -19 -40 -35 0 -136 -62 -173 -107 -45 -53 -50 -90 -12 -99 26 -7 36 -6
224 21 191 27 380 4 528 -66 l62 -30 0 -60 c0 -33 -4 -90 -10 -127 -41 -281
-50 -441 -31 -539 11 -55 -5 -67 -117 -96 -116 -29 -354 -30 -482 -3 -166 36
-355 130 -465 232 -28 26 -98 123 -113 157 -59 131 -70 210 -48 330 29 155 76
253 170 356 48 52 212 161 305 203 36 16 80 36 96 43 43 19 54 18 59 -7z
m-307 -1473 c286 -109 529 -130 823 -70 69 13 134 27 145 30 15 5 24 -2 39
-29 10 -19 42 -58 70 -86 101 -102 241 -161 379 -162 l77 -1 0 -31 c0 -40 -38
-120 -88 -189 -117 -157 -289 -248 -582 -307 -244 -49 -524 -16 -736 86 -80
39 -189 151 -237 242 -69 131 -94 299 -66 434 10 48 44 128 53 128 2 0 57 -20
123 -45z m1619 -859 c53 -25 112 -85 139 -143 37 -77 29 -189 -20 -299 -28
-61 -118 -161 -183 -203 -26 -17 -53 -36 -60 -42 -8 -6 -64 -33 -126 -60 -242
-104 -486 -113 -718 -26 -197 75 -315 174 -394 333 -29 58 -37 86 -41 153 -7
94 -13 90 97 61 100 -26 329 -36 475 -21 238 26 504 121 665 237 55 40 96 43
166 10z m-89 -1081 c6 -22 26 -101 43 -175 38 -157 81 -256 139 -322 40 -45
41 -48 19 -48 -67 0 -191 99 -237 188 -29 58 -103 357 -90 365 2 2 20 10 39
19 53 26 73 20 87 -27z"/>
<path d="M9872 12225 c-106 -20 -228 -61 -300 -102 -221 -122 -449 -362 -544
-570 -53 -118 -27 -176 57 -124 17 10 79 65 139 122 135 130 246 212 361 268
118 57 120 58 190 76 180 46 365 23 571 -71 128 -58 193 -48 228 37 17 43 17
49 2 101 -19 65 -77 136 -138 168 -170 89 -398 127 -566 95z"/>
<path d="M13145 11980 c-92 -13 -160 -30 -202 -50 -24 -11 -47 -20 -51 -20
-19 0 -94 -75 -107 -107 -46 -109 16 -215 124 -215 26 0 69 9 94 20 89 40 193
57 337 57 144 -1 226 -17 343 -69 181 -80 417 -294 522 -474 90 -154 140 -225
170 -239 31 -15 36 -15 59 1 25 16 31 34 27 81 -2 25 -51 176 -61 190 -4 6
-13 28 -20 50 -16 51 -110 231 -163 309 -52 77 -184 210 -262 263 -78 53 -242
135 -325 163 -124 42 -344 60 -485 40z"/>
<path d="M9802 11500 c-223 -59 -444 -228 -605 -465 -83 -121 -76 -110 -161
-280 -84 -167 -170 -401 -221 -599 -89 -346 -126 -854 -91 -1236 15 -156 56
-410 82 -499 6 -22 5 -23 -17 -17 -13 3 -70 12 -127 18 -90 11 -114 10 -185
-5 -109 -22 -219 -77 -252 -125 -47 -69 -27 -102 49 -80 63 19 288 16 371 -4
149 -36 275 -90 379 -160 72 -49 238 -211 274 -267 9 -14 22 -30 29 -34 7 -4
13 -13 13 -19 0 -6 14 -33 30 -60 17 -27 28 -53 25 -59 -4 -5 -2 -9 3 -9 7 0
59 -103 116 -232 22 -49 41 -67 65 -61 37 9 45 54 32 165 -7 55 -15 106 -18
114 -4 11 10 14 73 14 44 0 95 4 115 9 l36 8 7 -85 c14 -190 61 -305 170 -420
39 -41 95 -89 124 -106 30 -17 66 -39 80 -48 115 -74 297 -118 489 -118 195 0
291 41 365 154 44 68 48 108 16 130 -31 22 -59 20 -128 -9 -132 -56 -270 -56
-442 -1 -62 20 -182 76 -237 111 -66 43 -150 160 -175 244 -20 68 -20 120 -1
194 27 106 89 177 197 227 95 44 180 57 281 40 146 -23 234 -66 447 -220 56
-40 88 -48 134 -30 112 42 -80 290 -331 427 -57 32 -215 73 -278 73 -19 0 -35
3 -35 6 0 4 24 56 54 118 29 61 70 156 91 211 20 55 41 109 45 120 5 11 10 29
13 40 3 11 25 97 50 190 56 212 72 296 98 510 52 431 28 957 -59 1278 0 1 -3
9 -6 17 -2 8 -22 67 -43 130 -87 266 -239 485 -425 613 -38 26 -71 47 -74 47
-3 0 -20 6 -37 14 -105 48 -278 59 -405 26z m229 -210 c95 -17 207 -79 276
-151 41 -45 133 -179 133 -196 0 -7 5 -13 10 -13 6 0 10 -6 10 -14 0 -8 11
-36 24 -63 58 -117 138 -476 155 -702 30 -371 7 -683 -81 -1131 -22 -113 -94
-378 -107 -395 -5 -5 -14 -28 -21 -50 -24 -73 -110 -268 -152 -341 -38 -67
-45 -74 -95 -93 -100 -38 -180 -103 -282 -228 -55 -68 -131 -92 -255 -78 -94
10 -97 15 -43 72 61 63 88 101 147 199 87 146 139 280 193 494 76 298 96 406
97 511 0 66 -14 84 -112 144 -35 22 -64 42 -66 46 -3 6 -85 61 -299 199 -46
29 -83 56 -83 59 1 7 98 74 355 244 110 73 215 143 234 157 l33 25 -5 140
c-17 464 -153 839 -356 979 -30 21 -58 31 -103 35 l-61 6 71 48 c40 26 78 47
85 47 7 0 17 4 23 8 11 11 108 40 149 45 56 7 72 7 126 -3z"/>
<path d="M13068 11265 c-474 -103 -868 -610 -1063 -1365 -33 -124 -63 -288
-97 -515 -9 -62 -13 -193 -12 -415 0 -282 3 -344 22 -465 45 -291 114 -521
218 -729 74 -146 174 -267 279 -334 28 -17 55 -35 60 -40 6 -4 45 -21 87 -36
68 -25 77 -31 73 -50 -3 -11 -12 -50 -20 -86 -19 -85 -19 -183 0 -220 27 -52
58 -35 99 53 124 269 194 382 320 515 117 122 196 181 341 252 279 138 571
183 840 130 172 -34 228 -47 305 -74 84 -30 138 -36 150 -16 15 24 -11 70 -69
121 -126 113 -413 217 -603 218 -31 1 -59 5 -62 10 -4 5 -1 22 5 38 89 225
151 485 195 818 30 232 33 272 33 520 1 194 -4 282 -19 395 -21 161 -53 328
-77 405 -59 194 -68 217 -130 340 -119 234 -263 385 -447 470 -93 42 -100 45
-176 61 -78 17 -174 17 -252 -1z m279 -238 c106 -28 226 -123 320 -252 81
-111 179 -382 223 -615 51 -267 62 -710 24 -1013 -41 -333 -95 -572 -189 -834
-36 -101 -52 -122 -92 -124 -25 -2 -30 -3 -53 -11 -8 -4 -53 -18 -100 -32
-140 -41 -302 -128 -443 -237 l-27 -21 10 28 c6 16 15 33 20 39 13 15 57 132
87 230 61 200 105 405 133 614 13 99 15 96 -105 177 -44 30 -109 76 -145 101
-36 26 -97 67 -136 92 -94 60 -184 122 -184 127 0 1 46 33 103 70 283 186 446
295 486 324 l44 32 -7 127 c-13 228 -66 522 -116 636 -83 190 -86 196 -138
261 -66 82 -153 139 -213 139 -28 0 -45 4 -42 10 14 37 205 128 313 149 41 8
171 -2 227 -17z"/>
<path d="M13750 7589 c-14 -6 -37 -22 -52 -36 -23 -22 -28 -36 -28 -73 0 -52
18 -83 60 -105 47 -25 86 -19 126 18 30 27 37 41 38 73 1 48 -22 87 -67 114
-36 22 -42 23 -77 9z"/>
<path d="M14074 7330 c-11 -4 -33 -22 -47 -40 -21 -25 -27 -42 -27 -81 0 -28
4 -59 10 -69 17 -31 74 -60 120 -60 36 0 48 6 81 39 33 33 39 45 39 82 0 98
-90 164 -176 129z"/>
<path d="M13110 7178 c-29 -32 -40 -81 -40 -189 0 -95 24 -219 54 -278 19 -37
6 -63 -51 -101 -218 -148 -299 -198 -443 -270 -91 -46 -178 -89 -195 -97 -51
-22 -252 -92 -292 -102 -21 -6 -76 -21 -123 -35 -47 -13 -125 -32 -175 -40
-49 -9 -106 -21 -125 -26 -70 -17 -300 -41 -465 -48 -240 -10 -514 8 -720 48
-27 6 -88 17 -135 25 -47 9 -116 25 -155 36 -138 41 -346 112 -351 120 -3 5
-13 9 -21 9 -18 0 -289 135 -354 175 -21 14 -41 25 -44 25 -29 0 -471 337
-525 399 -22 26 -85 71 -98 71 -7 0 -21 -9 -32 -20 -15 -15 -19 -27 -14 -48 7
-28 30 -67 51 -90 7 -7 13 -16 13 -20 0 -4 14 -23 30 -42 16 -19 30 -39 30
-43 0 -13 234 -247 247 -247 7 0 13 -7 13 -16 0 -8 4 -13 9 -10 4 3 19 -6 32
-21 34 -36 107 -89 229 -166 58 -36 110 -74 117 -85 6 -10 27 -81 47 -158 71
-272 144 -470 250 -682 211 -420 545 -736 950 -897 291 -115 686 -136 1037
-55 276 64 531 198 774 406 251 215 480 528 609 834 11 25 27 63 37 85 76 178
104 250 147 385 28 85 61 190 74 233 12 42 28 77 34 77 6 0 28 -7 49 -16 49
-20 210 -54 260 -54 51 0 134 22 174 46 66 39 43 96 -44 109 -22 3 -51 10 -65
14 -14 5 -54 16 -90 26 -36 9 -81 26 -101 36 -20 10 -41 19 -47 19 -27 0 -210
127 -252 176 -100 117 -177 267 -215 418 -27 109 -51 131 -95 84z m-297 -1738
c56 -17 77 -28 77 -40 0 -9 -40 -75 -90 -147 -125 -182 -319 -377 -485 -488
-226 -151 -364 -207 -625 -254 -198 -36 -361 -35 -550 3 -173 36 -382 123
-388 162 -4 30 128 221 211 305 41 41 94 87 118 104 24 16 53 37 64 46 20 17
91 54 155 82 91 40 220 61 308 52 74 -7 142 -22 142 -32 0 -3 -33 -41 -74 -83
-80 -84 -140 -190 -134 -238 6 -54 34 -39 150 77 132 133 187 180 293 253 294
200 584 269 828 198z"/>
<path d="M12537 4191 c-70 -54 -378 -199 -507 -240 -198 -63 -441 -99 -600
-87 -233 16 -521 90 -715 183 -86 41 -125 44 -125 9 0 -61 54 -122 183 -209
210 -141 428 -212 698 -224 307 -15 613 72 875 248 88 58 262 226 288 277 37
72 -23 98 -97 43z"/>
</g>
</svg>